#!OML:ASF F:\VICON\USERDATA\INSTALL\rory3\rory3.ASF
:FULLY-SPECIFIED
:DEGREES
323
root -0.388857 15.563 -15.6576 -38.1354 -81.0304 57.6727
lowerback -3.94837 6.5406 4.54839
upperback -8.82516 8.43308 -1.80304
thorax -6.10724 3.74531 -4.43695
lowerneck -1.77883 20.75 15.119
upperneck 10.0067 29.9589 -18.1025
head 8.43072 14.2261 -4.53242
rclavicle -3.08116e-015 4.77083e-015
rhumerus -48.4436 -27.1211 -51.1905
rradius 18.8781
rwrist 17.7453
rhand 17.2298 13.0603
rfingers 7.12502
rthumb 41.9462 -11.5478
lclavicle -3.08116e-015 4.77083e-015
lhumerus -29.622 40.0492 61.5943
lradius 15.6255
lwrist -61.7075
lhand 8.54347 6.87252
lfingers 7.12502
lthumb 33.7436 33.7128
rfemur 154.259 -199.656 -194.86
rtibia 43.0777
rfoot -74.5259 13.8734
rtoes 62.3721
lfemur -48.7063 -4.92849 -27.638
ltibia 56.8294
lfoot -22.3259 10.955
ltoes -28.738
324
root -0.40448 15.6124 -15.5102 -29.3048 -80.5469 49.0561
lowerback -4.46812 6.47925 3.28853
upperback -8.94158 8.34746 -1.11348
thorax -6.21815 3.79532 -3.00133
lowerneck -2.09747 20.4439 14.9851
upperneck 10.5567 29.5447 -17.7934
head 8.52429 14.0039 -4.47258
rclavicle 2.90226e-014 6.36111e-015
rhumerus -47.7652 -27.1647 -48.7908
rradius 17.7865
rwrist 18.3414
rhand 15.983 10.5945
rfingers 7.12502
rthumb 40.7762 -14.3927
lclavicle 2.90226e-014 6.36111e-015
lhumerus -28.4582 39.166 61.284
lradius 15.6745
lwrist -61.4081
lhand 6.4662 7.25062
lfingers 7.12502
lthumb 31.7674 34.5029
rfemur 154.495 -195.581 -193.744
rtibia 43.5124
rfoot -70.3717 10.1582
rtoes 62.5967
lfemur -48.7698 -6.71693 -27.259
ltibia 56.4914
lfoot -22.3062 11.5558
ltoes -27.1617
325
root -0.440698 15.6608 -15.3429 -19.9161 -80.2641 39.7848
lowerback -5.23572 6.57804 2.63521
upperback -9.01898 8.47541 -0.231767
thorax -6.08863 3.92833 -1.66234
lowerneck -2.43966 20.0839 14.7048
upperneck 11.3922 29.11 -17.4834
head 8.69525 13.753 -4.39298
rclavicle 7.5737e-014 5.725e-014
rhumerus -47.9707 -28.4721 -44.392
rradius 16.6534
rwrist 21.9235
rhand 14.6855 9.7534
rfingers 7.12502
rthumb 39.5555 -15.6052
lclavicle 7.5737e-014 5.725e-014
lhumerus -27.6804 39.1179 60.6618
lradius 15.4788
lwrist -61.7884
lhand 3.51382 8.37094
lfingers 7.12502
lthumb 28.9514 36.143
rfemur 154.587 -193.152 -192.308
rtibia 44.0018
rfoot -67.0721 5.97386
rtoes 62.3407
lfemur -48.806 -6.39404 -27.0389
ltibia 56.2475
lfoot -22.2801 9.99141
ltoes -23.9744
326
root -0.464069 15.7052 -15.1927 -9.99721 -79.2513 30.1954
lowerback -5.92031 6.46864 2.37488
upperback -9.37668 8.31064 0.341058
thorax -6.22389 3.86821 -0.884116
lowerneck -2.62864 19.755 14.5658
upperneck 12.2761 28.6655 -16.863
head 8.82558 13.5317 -4.2524
rclavicle 1.46107e-013 6.04305e-014
rhumerus -48.4132 -29.1588 -40.7654
rradius 15.9241
rwrist 25.0048
rhand 13.1232 8.94251
rfingers 7.12502
rthumb 38.0822 -16.8343
lclavicle 1.46107e-013 6.04305e-014
lhumerus -27.305 40.0916 58.7926
lradius 15.2564
lwrist -62.9558
lhand 1.3848 9.11906
lfingers 7.12502
lthumb 26.9161 37.2224
rfemur 154.646 -192.074 -190.865
rtibia 44.5185
rfoot -66.102 1.5766
rtoes 62.0193
lfemur -49.0485 -7.69909 -26.2386
ltibia 55.9521
lfoot -22.0471 9.44278
ltoes -21.8055
327
root -0.508765 15.7663 -15.0495 -1.3963 -77.8974 21.6386
lowerback -6.6832 6.27611 2.69396
upperback -9.55946 8.01386 0.719939
thorax -6.01707 3.71035 -0.594934
lowerneck -2.81115 19.5317 14.7824
upperneck 13.1218 28.3442 -16.2898
head 9.02683 13.3827 -4.13259
rclavicle -6.95746e-015 2.22639e-014
rhumerus -49.1968 -30.7345 -36.7354
rradius 15.2715
rwrist 29.3178
rhand 12.0662 8.5587
rfingers 7.12502
rthumb 37.0833 -17.4842
lclavicle -6.95746e-015 2.22639e-014
lhumerus -26.3611 39.9616 57.1895
lradius 15.339
lwrist -62.5042
lhand 0.719194 10.2924
lfingers 7.12502
lthumb 26.2791 38.4924
rfemur 155.106 -191.736 -188.997
rtibia 44.8987
rfoot -64.4809 -0.873101
rtoes 62.1237
lfemur -48.8559 -9.12075 -25.2511
ltibia 55.5829
lfoot -22.0539 8.70458
ltoes -18.9717
328
root -0.528024 15.8668 -14.8823 11.2391 -76.1274 9.00733
lowerback -8.28284 6.78125 5.53816
upperback -8.95788 8.46347 0.677778
thorax -4.08415 3.82662 -1.90178
lowerneck -4.64481 19.0643 14.8765
upperneck 13.5773 27.4541 -15.8654
head 9.29936 12.871 -4.00207
rclavicle -2.27608e-014 -6.36111e-015
rhumerus -51.1037 -35.2832 -31.288
rradius 14.7463
rwrist 34.0781
rhand 12.1781 8.41798
rfingers 7.12502
rthumb 37.1891 -17.5974
lclavicle -2.27608e-014 -6.36111e-015
lhumerus -22.5997 41.0788 57.245
lradius 15.4121
lwrist -63.3036
lhand -0.525756 11.1593
lfingers 7.12502
lthumb 25.0867 39.5314
rfemur 155.298 -191.516 -185.327
rtibia 45.095
rfoot -63.2451 -2.33719
rtoes 62.8004
lfemur -48.9058 -10.4422 -22.7955
ltibia 55.0586
lfoot -21.5557 8.42596
ltoes -17.0743
329
root -0.542232 15.9987 -14.728 20.4219 -73.8035 -0.0910536
lowerback -9.12836 7.08717 7.19531
upperback -9.13112 8.69481 1.17295
thorax -3.65702 3.86838 -2.16337
lowerneck -5.73591 18.5475 15.3732
upperneck 14.8909 26.6942 -15.5371
head 9.84276 12.4476 -3.98221
rclavicle -1.08338e-014 4.77083e-015
rhumerus -53.1126 -37.3418 -26.0606
rradius 14.437
rwrist 37.1008
rhand 12.7822 8.24459
rfingers 7.12502
rthumb 37.7601 -17.6195
lclavicle -1.08338e-014 4.77083e-015
lhumerus -20.6072 41.1561 56.9494
lradius 15.9533
lwrist -63.1807
lhand -2.42568 10.9219
lfingers 7.12502
lthumb 23.2651 39.5364
rfemur 155.31 -191.73 -181.665
rtibia 45.0793
rfoot -63.0327 -3.90048
rtoes 64.0858
lfemur -48.8418 -11.109 -20.6642
ltibia 54.1302
lfoot -20.3282 8.41063
ltoes -18.7768
330
root -0.564809 16.1596 -14.5793 25.2982 -71.4589 -5.09768
lowerback -9.67351 5.8739 8.46661
upperback -9.53597 6.93292 3.1566
thorax -4.07976 2.91632 -0.913686
lowerneck -2.83807 18.9803 13.0292
upperneck 14.4941 27.6926 -15.3487
head 8.98729 13.0139 -3.78153
rclavicle -4.21423e-014 2.70347e-014
rhumerus -49.5816 -35.9942 -24.5419
rradius 13.8054
rwrist 39.8431
rhand 13.4505 7.95035
rfingers 7.12502
rthumb 38.3912 -17.7414
lclavicle -4.21423e-014 2.70347e-014
lhumerus -24.4009 42.7474 52.7602
lradius 17.1772
lwrist -61.5702
lhand -0.908161 11.6964
lfingers 7.12502
lthumb 24.7202 40.1193
rfemur 155.628 -192.652 -178.587
rtibia 44.8615
rfoot -61.9405 -4.28097
rtoes 63.3331
lfemur -48.169 -10.7352 -19.5109
ltibia 52.6358
lfoot -18.8379 6.64099
ltoes -16.8037
331
root -0.59453 16.3353 -14.4203 27.5895 -69.401 -7.80427
lowerback -9.61901 6.2079 8.70197
upperback -9.7624 7.3861 3.34454
thorax -4.32802 3.12113 -0.821017
lowerneck -4.51391 18.2943 13.4185
upperneck 16.6161 26.6816 -14.401
head 9.76829 12.441 -3.51766
rclavicle 5.12864e-014 1.27222e-013
rhumerus -51.6315 -36.6164 -19.9977
rradius 13.8266
rwrist 40.6485
rhand 13.9018 7.51085
rfingers 7.12502
rthumb 38.8169 -18.0614
lclavicle 5.12864e-014 1.27222e-013
lhumerus -21.8021 41.5681 52.9439
lradius 17.2652
lwrist -61.4583
lhand -0.665236 11.646
lfingers 7.12502
lthumb 24.953 40.0368
rfemur 156.214 -194.364 -176.008
rtibia 44.6498
rfoot -62.0088 -3.7545
rtoes 63.9006
lfemur -46.7922 -9.04856 -19.4861
ltibia 50.6751
lfoot -16.7113 3.76543
ltoes -14.227
332
root -0.628372 16.5509 -14.2473 27.2546 -68.0146 -7.16876
lowerback -10.3853 6.02262 8.14453
upperback -9.94014 7.08515 3.61034
thorax -4.21727 3.00842 -0.20684
lowerneck -4.56985 18.0617 12.7613
upperneck 17.3919 26.4069 -13.8719
head 9.83379 12.2862 -3.31913
rclavicle -1.42529e-013 -9.06458e-014
rhumerus -52.0226 -37.5943 -15.9245
rradius 13.4556
rwrist 43.3011
rhand 13.796 7.29049
rfingers 7.12502
rthumb 38.7171 -18.31
lclavicle -1.42529e-013 -9.06458e-014
lhumerus -20.8881 41.194 51.6894
lradius 17.2196
lwrist -61.1277
lhand -1.09572 11.306
lfingers 7.12502
lthumb 24.5405 39.7534
rfemur 156.048 -195.01 -174.944
rtibia 44.2729
rfoot -60.2611 -3.20598
rtoes 63.4278
lfemur -45.4577 -9.96588 -19.9729
ltibia 48.4104
lfoot -14.4866 4.11
ltoes -15.9075
333
root -0.638278 16.7612 -14.1042 27.9333 -66.2897 -7.25032
lowerback -11.1494 5.89728 7.81224
upperback -10.2954 6.85949 3.88521
thorax -4.27375 2.90877 0.294617
lowerneck -4.6006 17.7678 12.258
upperneck 18.1183 26.0626 -13.51
head 9.91993 12.0966 -3.20308
rclavicle 2.88238e-014 0
rhumerus -52.2663 -38.1619 -12.4196
rradius 13.0765
rwrist 45.2029
rhand 13.3989 6.96385
rfingers 7.12502
rthumb 38.3425 -18.7414
lclavicle 2.88238e-014 0
lhumerus -19.7575 41.3394 50.5188
lradius 16.715
lwrist -62.4074
lhand -2.9752 10.4465
lfingers 7.12502
lthumb 22.7378 39.1267
rfemur 155.078 -195.302 -173.398
rtibia 44.0882
rfoot -59.1548 -3.61947
rtoes 63.864
lfemur -44.8242 -9.75062 -20.1576
ltibia 46.2497
lfoot -11.6264 2.65701
ltoes -17.0878
334
root -0.648226 16.9724 -13.9368 32.0841 -64.1373 -12.3289
lowerback -10.8113 6.15999 10.1746
upperback -10.3952 7.06782 4.66899
thorax -4.44221 2.87287 -0.156633
lowerneck -4.52159 17.3832 11.9093
upperneck 18.8372 25.6365 -13.3836
head 10.0343 11.8634 -3.20198
rclavicle 5.4467e-014 9.54166e-014
rhumerus -52.0355 -37.9239 -9.82858
rradius 12.6875
rwrist 45.9326
rhand 12.8806 6.45655
rfingers 7.12502
rthumb 37.8531 -19.3825
lclavicle 5.4467e-014 9.54166e-014
lhumerus -18.5204 40.5941 49.6123
lradius 16.2551
lwrist -63.431
lhand -3.13318 10.1609
lfingers 7.12502
lthumb 22.5861 38.8596
rfemur 154.976 -196.921 -169.347
rtibia 43.8492
rfoot -58.3023 -7.25492
rtoes 63.4912
lfemur -43.5584 -8.61362 -18.1364
ltibia 44.4132
lfoot -8.45882 0.365857
ltoes -10.8669
335
root -0.644273 17.1882 -13.7851 32.2936 -62.8429 -12.5769
lowerback -10.685 6.18466 10.2077
upperback -10.6699 7.14249 4.894
thorax -4.8399 2.89103 0.0470111
lowerneck -4.5069 17.0313 11.837
upperneck 19.6616 25.2857 -13.4276
head 10.2763 11.6569 -3.26304
rclavicle -6.16232e-014 -5.40694e-014
rhumerus -53.3201 -39.4407 -4.82435
rradius 12.3917
rwrist 49.2011
rhand 13.0062 6.45586
rfingers 7.12502
rthumb 37.9717 -19.3511
lclavicle -6.16232e-014 -5.40694e-014
lhumerus -17.3595 39.9426 48.6559
lradius 15.7646
lwrist -64.8221
lhand -4.29977 9.4828
lfingers 7.12502
lthumb 21.4661 38.3135
rfemur 154.112 -197.408 -167.869
rtibia 43.9454
rfoot -57.143 -9.98904
rtoes 62.8478
lfemur -42.8261 -7.94095 -18.3583
ltibia 42.7603
lfoot -4.73479 -0.822377
ltoes -8.43754
336
root -0.636392 17.3948 -13.6428 32.1704 -61.6315 -12.3619
lowerback -10.6338 6.15043 10.0754
upperback -10.8291 7.13724 4.9429
thorax -5.06523 2.88891 0.156802
lowerneck -4.99747 16.7934 11.8127
upperneck 20.5541 25.0236 -13.2969
head 10.6315 11.4766 -3.20967
rclavicle -5.38706e-014 -8.26944e-014
rhumerus -54.7889 -41.2379 0.135396
rradius 12.2335
rwrist 52.4701
rhand 13.5499 6.61407
rfingers 7.12502
rthumb 38.4849 -19.0516
lclavicle -5.38706e-014 -8.26944e-014
lhumerus -16.0161 39.6816 47.5513
lradius 15.3051
lwrist -66.7728
lhand -4.15067 9.66974
lfingers 7.12502
lthumb 21.6093 38.484
rfemur 153.109 -197.91 -166.723
rtibia 44.1232
rfoot -56.6678 -11.0485
rtoes 62.3294
lfemur -42.3421 -8.57136 -18.4883
ltibia 41.4184
lfoot -0.912783 -0.245437
ltoes -12.2718
